{
    "asset" : {
        "generator" : "Khronos glTF Blender I/O v1.2.75",
        "version" : "2.0"
    },
    "scene" : 0,
    "scenes" : [
        {
            "name" : "Scene",
            "nodes" : [
                0,
                1,
                2,
                3,
                4
            ]
        }
    ],
    "nodes" : [
        {
            "mesh" : 0,
            "name" : "Glass",
            "rotation" : [
                0,
                -0.7071067690849304,
                0,
                0.7071068286895752
            ],
            "scale" : [
                0.6376150846481323,
                0.6376150846481323,
                0.6376150846481323
            ],
            "translation" : [
                -0.9524860382080078,
                0.07600641250610352,
                -3.060149908065796
            ]
        },
        {
            "mesh" : 1,
            "name" : "Machine",
            "translation" : [
                0,
                0,
                -3.048417806625366
            ]
        },
        {
            "mesh" : 2,
            "name" : "Silver",
            "rotation" : [
                0,
                -0.7071067690849304,
                0,
                0.7071068286895752
            ],
            "scale" : [
                0.6376150846481323,
                0.6376150846481323,
                0.6376150846481323
            ],
            "translation" : [
                -0.9524860382080078,
                0.07600641250610352,
                -3.060149908065796
            ]
        },
        {
            "mesh" : 3,
            "name" : "Termovar_Right",
            "rotation" : [
                0,
                0.4340192675590515,
                0,
                0.900903582572937
            ],
            "translation" : [
                -1.483022689819336,
                0.01963329315185547,
                -1.123043179512024
            ]
        },
        {
            "mesh" : 4,
            "name" : "Termovar_Left",
            "rotation" : [
                0,
                -0.3566967248916626,
                0,
                0.9342202544212341
            ],
            "translation" : [
                -1.2751072645187378,
                0.01963329315185547,
                -5.963573932647705
            ]
        }
    ],
    "materials" : [
        {
            "alphaMode" : "BLEND",
            "doubleSided" : true,
            "emissiveFactor" : [
                0,
                0,
                0
            ],
            "name" : "Mat_Q",
            "pbrMetallicRoughness" : {
                "baseColorFactor" : [
                    0.800000011920929,
                    0.800000011920929,
                    0.800000011920929,
                    1
                ],
                "metallicFactor" : 0.2454545795917511,
                "roughnessFactor" : 0.5
            }
        },
        {
            "doubleSided" : true,
            "emissiveFactor" : [
                0,
                0,
                0
            ],
            "name" : "Mat_R",
            "pbrMetallicRoughness" : {
                "baseColorTexture" : {
                    "index" : 0,
                    "texCoord" : 0
                },
                "metallicFactor" : 0,
                "roughnessFactor" : 0.4000000059604645
            }
        },
        {
            "doubleSided" : true,
            "emissiveFactor" : [
                0,
                0,
                0
            ],
            "name" : "Mat_S",
            "pbrMetallicRoughness" : {
                "baseColorFactor" : [
                    0.800000011920929,
                    0.800000011920929,
                    0.800000011920929,
                    1
                ],
                "metallicFactor" : 1,
                "roughnessFactor" : 0.04545453190803528
            }
        },
        {
            "doubleSided" : true,
            "emissiveFactor" : [
                0,
                0,
                0
            ],
            "name" : "Mat_T",
            "pbrMetallicRoughness" : {
                "baseColorTexture" : {
                    "index" : 1,
                    "texCoord" : 0
                },
                "metallicFactor" : 0,
                "roughnessFactor" : 0.5
            }
        }
    ],
    "meshes" : [
        {
            "name" : "Cylinder.006",
            "primitives" : [
                {
                    "attributes" : {
                        "POSITION" : 0,
                        "NORMAL" : 1,
                        "TEXCOORD_0" : 2
                    },
                    "indices" : 3,
                    "material" : 0
                }
            ]
        },
        {
            "name" : "Cylinder.007",
            "primitives" : [
                {
                    "attributes" : {
                        "POSITION" : 4,
                        "NORMAL" : 5,
                        "TEXCOORD_0" : 6
                    },
                    "indices" : 7,
                    "material" : 1
                }
            ]
        },
        {
            "name" : "Cylinder.009",
            "primitives" : [
                {
                    "attributes" : {
                        "POSITION" : 8,
                        "NORMAL" : 9,
                        "TEXCOORD_0" : 10
                    },
                    "indices" : 11,
                    "material" : 2
                }
            ]
        },
        {
            "name" : "Cube.001",
            "primitives" : [
                {
                    "attributes" : {
                        "POSITION" : 12,
                        "NORMAL" : 13,
                        "TEXCOORD_0" : 14
                    },
                    "indices" : 15,
                    "material" : 3
                }
            ]
        },
        {
            "name" : "Cube.003",
            "primitives" : [
                {
                    "attributes" : {
                        "POSITION" : 16,
                        "NORMAL" : 17,
                        "TEXCOORD_0" : 18
                    },
                    "indices" : 19,
                    "material" : 3
                }
            ]
        }
    ],
    "textures" : [
        {
            "source" : 0
        },
        {
            "source" : 1
        }
    ],
    "images" : [
        {
            "bufferView" : 8,
            "mimeType" : "image/png",
            "name" : "andettrin"
        },
        {
            "bufferView" : 17,
            "mimeType" : "image/png",
            "name" : "left"
        }
    ],
    "accessors" : [
        {
            "bufferView" : 0,
            "componentType" : 5126,
            "count" : 359,
            "max" : [
                1,
                0.7600906491279602,
                1
            ],
            "min" : [
                -1,
                -1.237714409828186,
                -1.1926575899124146
            ],
            "type" : "VEC3"
        },
        {
            "bufferView" : 1,
            "componentType" : 5126,
            "count" : 359,
            "type" : "VEC3"
        },
        {
            "bufferView" : 2,
            "componentType" : 5126,
            "count" : 359,
            "type" : "VEC2"
        },
        {
            "bufferView" : 3,
            "componentType" : 5123,
            "count" : 1446,
            "type" : "SCALAR"
        },
        {
            "bufferView" : 4,
            "componentType" : 5126,
            "count" : 686,
            "max" : [
                1.0887067317962646,
                2.189560651779175,
                1.1921017169952393
            ],
            "min" : [
                -2.0472846031188965,
                -1,
                -1.1921015977859497
            ],
            "type" : "VEC3"
        },
        {
            "bufferView" : 5,
            "componentType" : 5126,
            "count" : 686,
            "type" : "VEC3"
        },
        {
            "bufferView" : 6,
            "componentType" : 5126,
            "count" : 686,
            "type" : "VEC2"
        },
        {
            "bufferView" : 7,
            "componentType" : 5123,
            "count" : 2136,
            "type" : "SCALAR"
        },
        {
            "bufferView" : 9,
            "componentType" : 5126,
            "count" : 279,
            "max" : [
                1.3649123907089233,
                3.2375128269195557,
                1.3167848587036133
            ],
            "min" : [
                -1.3281123638153076,
                -1.67465341091156,
                -1.7298921346664429
            ],
            "type" : "VEC3"
        },
        {
            "bufferView" : 10,
            "componentType" : 5126,
            "count" : 279,
            "type" : "VEC3"
        },
        {
            "bufferView" : 11,
            "componentType" : 5126,
            "count" : 279,
            "type" : "VEC2"
        },
        {
            "bufferView" : 12,
            "componentType" : 5123,
            "count" : 1248,
            "type" : "SCALAR"
        },
        {
            "bufferView" : 13,
            "componentType" : 5126,
            "count" : 280,
            "max" : [
                1,
                0.9217534065246582,
                1
            ],
            "min" : [
                -1,
                -1,
                0
            ],
            "type" : "VEC3"
        },
        {
            "bufferView" : 14,
            "componentType" : 5126,
            "count" : 280,
            "type" : "VEC3"
        },
        {
            "bufferView" : 15,
            "componentType" : 5126,
            "count" : 280,
            "type" : "VEC2"
        },
        {
            "bufferView" : 16,
            "componentType" : 5123,
            "count" : 1089,
            "type" : "SCALAR"
        },
        {
            "bufferView" : 18,
            "componentType" : 5126,
            "count" : 280,
            "max" : [
                1,
                0.9295780658721924,
                1.007369041442871
            ],
            "min" : [
                -1,
                -1,
                0.007369041442871094
            ],
            "type" : "VEC3"
        },
        {
            "bufferView" : 19,
            "componentType" : 5126,
            "count" : 280,
            "type" : "VEC3"
        },
        {
            "bufferView" : 20,
            "componentType" : 5126,
            "count" : 280,
            "type" : "VEC2"
        },
        {
            "bufferView" : 21,
            "componentType" : 5123,
            "count" : 1089,
            "type" : "SCALAR"
        }
    ],
    "bufferViews" : [
        {
            "buffer" : 0,
            "byteLength" : 4308,
            "byteOffset" : 0
        },
        {
            "buffer" : 0,
            "byteLength" : 4308,
            "byteOffset" : 4308
        },
        {
            "buffer" : 0,
            "byteLength" : 2872,
            "byteOffset" : 8616
        },
        {
            "buffer" : 0,
            "byteLength" : 2892,
            "byteOffset" : 11488
        },
        {
            "buffer" : 0,
            "byteLength" : 8232,
            "byteOffset" : 14380
        },
        {
            "buffer" : 0,
            "byteLength" : 8232,
            "byteOffset" : 22612
        },
        {
            "buffer" : 0,
            "byteLength" : 5488,
            "byteOffset" : 30844
        },
        {
            "buffer" : 0,
            "byteLength" : 4272,
            "byteOffset" : 36332
        },
        {
            "buffer" : 0,
            "byteLength" : 20566,
            "byteOffset" : 40604
        },
        {
            "buffer" : 0,
            "byteLength" : 3348,
            "byteOffset" : 61172
        },
        {
            "buffer" : 0,
            "byteLength" : 3348,
            "byteOffset" : 64520
        },
        {
            "buffer" : 0,
            "byteLength" : 2232,
            "byteOffset" : 67868
        },
        {
            "buffer" : 0,
            "byteLength" : 2496,
            "byteOffset" : 70100
        },
        {
            "buffer" : 0,
            "byteLength" : 3360,
            "byteOffset" : 72596
        },
        {
            "buffer" : 0,
            "byteLength" : 3360,
            "byteOffset" : 75956
        },
        {
            "buffer" : 0,
            "byteLength" : 2240,
            "byteOffset" : 79316
        },
        {
            "buffer" : 0,
            "byteLength" : 2178,
            "byteOffset" : 81556
        },
        {
            "buffer" : 0,
            "byteLength" : 20566,
            "byteOffset" : 83736
        },
        {
            "buffer" : 0,
            "byteLength" : 3360,
            "byteOffset" : 104304
        },
        {
            "buffer" : 0,
            "byteLength" : 3360,
            "byteOffset" : 107664
        },
        {
            "buffer" : 0,
            "byteLength" : 2240,
            "byteOffset" : 111024
        },
        {
            "buffer" : 0,
            "byteLength" : 2178,
            "byteOffset" : 113264
        }
    ],
    "buffers" : [
        {
            "byteLength" : 115444,
            "uri" : "data:application/octet-stream;base64,"
        }
    ]
}
