{
    "asset" : {
        "generator" : "Khronos glTF Blender I/O v1.2.75",
        "version" : "2.0"
    },
    "scene" : 0,
    "scenes" : [
        {
            "name" : "Scene",
            "nodes" : [
                0,
                1,
                2,
                3,
                4,
                5
            ]
        }
    ],
    "nodes" : [
        {
            "mesh" : 0,
            "name" : "Glaskande",
            "rotation" : [
                0,
                -0.7071067690849304,
                0,
                0.7071068286895752
            ],
            "scale" : [
                0.6376150846481323,
                0.6376150846481323,
                0.6376150846481323
            ],
            "translation" : [
                -0.5422995090484619,
                0.07600641250610352,
                -3.072456121444702
            ]
        },
        {
            "mesh" : 1,
            "name" : "Mamskine",
            "translation" : [
                0,
                0,
                -3.0607240200042725
            ]
        },
        {
            "mesh" : 2,
            "name" : "Soelbund",
            "translation" : [
                0,
                0,
                -3.0607240200042725
            ]
        },
        {
            "mesh" : 3,
            "name" : "Soelvkant",
            "rotation" : [
                0,
                -0.7071067690849304,
                0,
                0.7071068286895752
            ],
            "scale" : [
                0.6376150846481323,
                0.6376150846481323,
                0.6376150846481323
            ],
            "translation" : [
                -0.5422995090484619,
                0.07600641250610352,
                -3.072456121444702
            ]
        },
        {
            "mesh" : 4,
            "name" : "SoelvTop",
            "translation" : [
                0,
                1.732589840888977,
                -3.0607240200042725
            ]
        },
        {
            "mesh" : 5,
            "name" : "Sorthank",
            "rotation" : [
                0,
                -0.7071067690849304,
                0,
                0.7071068286895752
            ],
            "scale" : [
                0.6376150846481323,
                0.6376150846481323,
                0.6376150846481323
            ],
            "translation" : [
                -0.5422995090484619,
                0.07600641250610352,
                -3.072456121444702
            ]
        }
    ],
    "materials" : [
        {
            "alphaMode" : "BLEND",
            "doubleSided" : true,
            "emissiveFactor" : [
                0,
                0,
                0
            ],
            "name" : "Mat_Q",
            "pbrMetallicRoughness" : {
                "baseColorFactor" : [
                    0.800000011920929,
                    0.800000011920929,
                    0.800000011920929,
                    1
                ],
                "metallicFactor" : 0.2454545795917511,
                "roughnessFactor" : 0.5
            }
        },
        {
            "doubleSided" : true,
            "emissiveFactor" : [
                0,
                0,
                0
            ],
            "name" : "Mat_R",
            "pbrMetallicRoughness" : {
                "baseColorTexture" : {
                    "index" : 0,
                    "texCoord" : 0
                },
                "metallicFactor" : 0,
                "roughnessFactor" : 0.4000000059604645
            }
        },
        {
            "doubleSided" : true,
            "emissiveFactor" : [
                0,
                0,
                0
            ],
            "name" : "Mat_S",
            "pbrMetallicRoughness" : {
                "baseColorFactor" : [
                    0.800000011920929,
                    0.800000011920929,
                    0.800000011920929,
                    1
                ],
                "metallicFactor" : 1,
                "roughnessFactor" : 0.04545453190803528
            }
        }
    ],
    "meshes" : [
        {
            "name" : "Cylinder.003",
            "primitives" : [
                {
                    "attributes" : {
                        "POSITION" : 0,
                        "NORMAL" : 1,
                        "TEXCOORD_0" : 2
                    },
                    "indices" : 3,
                    "material" : 0
                }
            ]
        },
        {
            "name" : "Cylinder.001",
            "primitives" : [
                {
                    "attributes" : {
                        "POSITION" : 4,
                        "NORMAL" : 5,
                        "TEXCOORD_0" : 6
                    },
                    "indices" : 7,
                    "material" : 1
                }
            ]
        },
        {
            "name" : "Cylinder",
            "primitives" : [
                {
                    "attributes" : {
                        "POSITION" : 8,
                        "NORMAL" : 9,
                        "TEXCOORD_0" : 10
                    },
                    "indices" : 11,
                    "material" : 2
                }
            ]
        },
        {
            "name" : "Cylinder.005",
            "primitives" : [
                {
                    "attributes" : {
                        "POSITION" : 12,
                        "NORMAL" : 13,
                        "TEXCOORD_0" : 14
                    },
                    "indices" : 15,
                    "material" : 2
                }
            ]
        },
        {
            "name" : "Cylinder.002",
            "primitives" : [
                {
                    "attributes" : {
                        "POSITION" : 16,
                        "NORMAL" : 17,
                        "TEXCOORD_0" : 18
                    },
                    "indices" : 19,
                    "material" : 2
                }
            ]
        },
        {
            "name" : "Cylinder.004",
            "primitives" : [
                {
                    "attributes" : {
                        "POSITION" : 20,
                        "NORMAL" : 21,
                        "TEXCOORD_0" : 22
                    },
                    "indices" : 23,
                    "material" : 1
                }
            ]
        }
    ],
    "textures" : [
        {
            "source" : 0
        }
    ],
    "images" : [
        {
            "bufferView" : 8,
            "mimeType" : "image/png",
            "name" : "andettrin"
        }
    ],
    "accessors" : [
        {
            "bufferView" : 0,
            "componentType" : 5126,
            "count" : 359,
            "max" : [
                1,
                0.7600906491279602,
                1
            ],
            "min" : [
                -1,
                -1.237714409828186,
                -1.1926575899124146
            ],
            "type" : "VEC3"
        },
        {
            "bufferView" : 1,
            "componentType" : 5126,
            "count" : 359,
            "type" : "VEC3"
        },
        {
            "bufferView" : 2,
            "componentType" : 5126,
            "count" : 359,
            "type" : "VEC2"
        },
        {
            "bufferView" : 3,
            "componentType" : 5123,
            "count" : 1446,
            "type" : "SCALAR"
        },
        {
            "bufferView" : 4,
            "componentType" : 5126,
            "count" : 294,
            "max" : [
                1.0887067317962646,
                2.189560651779175,
                1.1921017169952393
            ],
            "min" : [
                -0.10339498519897461,
                -1,
                -1.1921015977859497
            ],
            "type" : "VEC3"
        },
        {
            "bufferView" : 5,
            "componentType" : 5126,
            "count" : 294,
            "type" : "VEC3"
        },
        {
            "bufferView" : 6,
            "componentType" : 5126,
            "count" : 294,
            "type" : "VEC2"
        },
        {
            "bufferView" : 7,
            "componentType" : 5123,
            "count" : 1536,
            "type" : "SCALAR"
        },
        {
            "bufferView" : 9,
            "componentType" : 5126,
            "count" : 63,
            "max" : [
                -0.03739425539970398,
                -0.6429488658905029,
                0.7177594304084778
            ],
            "min" : [
                -1.3381997346878052,
                -0.9450855255126953,
                -0.7177596092224121
            ],
            "type" : "VEC3"
        },
        {
            "bufferView" : 10,
            "componentType" : 5126,
            "count" : 63,
            "type" : "VEC3"
        },
        {
            "bufferView" : 11,
            "componentType" : 5126,
            "count" : 63,
            "type" : "VEC2"
        },
        {
            "bufferView" : 12,
            "componentType" : 5123,
            "count" : 309,
            "type" : "SCALAR"
        },
        {
            "bufferView" : 13,
            "componentType" : 5126,
            "count" : 90,
            "max" : [
                1.0240217447280884,
                -0.8445805907249451,
                1.0240676403045654
            ],
            "min" : [
                -1.0240226984024048,
                -1.0018446445465088,
                -1.0693176984786987
            ],
            "type" : "VEC3"
        },
        {
            "bufferView" : 14,
            "componentType" : 5126,
            "count" : 90,
            "type" : "VEC3"
        },
        {
            "bufferView" : 15,
            "componentType" : 5126,
            "count" : 90,
            "type" : "VEC2"
        },
        {
            "bufferView" : 16,
            "componentType" : 5123,
            "count" : 264,
            "type" : "SCALAR"
        },
        {
            "bufferView" : 17,
            "componentType" : 5126,
            "count" : 63,
            "max" : [
                0.15051913261413574,
                0.4077035188674927,
                0.8585564494132996
            ],
            "min" : [
                -1.3983088731765747,
                -0.7874232530593872,
                -0.8585566878318787
            ],
            "type" : "VEC3"
        },
        {
            "bufferView" : 18,
            "componentType" : 5126,
            "count" : 63,
            "type" : "VEC3"
        },
        {
            "bufferView" : 19,
            "componentType" : 5126,
            "count" : 63,
            "type" : "VEC2"
        },
        {
            "bufferView" : 20,
            "componentType" : 5123,
            "count" : 366,
            "type" : "SCALAR"
        },
        {
            "bufferView" : 21,
            "componentType" : 5126,
            "count" : 384,
            "max" : [
                0.2851448059082031,
                0.8849606513977051,
                1.717020869255066
            ],
            "min" : [
                -0.2783201336860657,
                -0.8832584023475647,
                0.9049962759017944
            ],
            "type" : "VEC3"
        },
        {
            "bufferView" : 22,
            "componentType" : 5126,
            "count" : 384,
            "type" : "VEC3"
        },
        {
            "bufferView" : 23,
            "componentType" : 5126,
            "count" : 384,
            "type" : "VEC2"
        },
        {
            "bufferView" : 24,
            "componentType" : 5123,
            "count" : 600,
            "type" : "SCALAR"
        }
    ],
    "bufferViews" : [
        {
            "buffer" : 0,
            "byteLength" : 4308,
            "byteOffset" : 0
        },
        {
            "buffer" : 0,
            "byteLength" : 4308,
            "byteOffset" : 4308
        },
        {
            "buffer" : 0,
            "byteLength" : 2872,
            "byteOffset" : 8616
        },
        {
            "buffer" : 0,
            "byteLength" : 2892,
            "byteOffset" : 11488
        },
        {
            "buffer" : 0,
            "byteLength" : 3528,
            "byteOffset" : 14380
        },
        {
            "buffer" : 0,
            "byteLength" : 3528,
            "byteOffset" : 17908
        },
        {
            "buffer" : 0,
            "byteLength" : 2352,
            "byteOffset" : 21436
        },
        {
            "buffer" : 0,
            "byteLength" : 3072,
            "byteOffset" : 23788
        },
        {
            "buffer" : 0,
            "byteLength" : 20566,
            "byteOffset" : 26860
        },
        {
            "buffer" : 0,
            "byteLength" : 756,
            "byteOffset" : 47428
        },
        {
            "buffer" : 0,
            "byteLength" : 756,
            "byteOffset" : 48184
        },
        {
            "buffer" : 0,
            "byteLength" : 504,
            "byteOffset" : 48940
        },
        {
            "buffer" : 0,
            "byteLength" : 618,
            "byteOffset" : 49444
        },
        {
            "buffer" : 0,
            "byteLength" : 1080,
            "byteOffset" : 50064
        },
        {
            "buffer" : 0,
            "byteLength" : 1080,
            "byteOffset" : 51144
        },
        {
            "buffer" : 0,
            "byteLength" : 720,
            "byteOffset" : 52224
        },
        {
            "buffer" : 0,
            "byteLength" : 528,
            "byteOffset" : 52944
        },
        {
            "buffer" : 0,
            "byteLength" : 756,
            "byteOffset" : 53472
        },
        {
            "buffer" : 0,
            "byteLength" : 756,
            "byteOffset" : 54228
        },
        {
            "buffer" : 0,
            "byteLength" : 504,
            "byteOffset" : 54984
        },
        {
            "buffer" : 0,
            "byteLength" : 732,
            "byteOffset" : 55488
        },
        {
            "buffer" : 0,
            "byteLength" : 4608,
            "byteOffset" : 56220
        },
        {
            "buffer" : 0,
            "byteLength" : 4608,
            "byteOffset" : 60828
        },
        {
            "buffer" : 0,
            "byteLength" : 3072,
            "byteOffset" : 65436
        },
        {
            "buffer" : 0,
            "byteLength" : 1200,
            "byteOffset" : 68508
        }
    ],
    "buffers" : [
        {
            "byteLength" : 69708,
            "uri" : "data:application/octet-stream;base64,"
        }
    ]
}
