{
    "asset" : {
        "generator" : "Khronos glTF Blender I/O v1.2.75",
        "version" : "2.0"
    },
    "scene" : 0,
    "scenes" : [
        {
            "name" : "Scene",
            "nodes" : [
                0
            ]
        }
    ],
    "nodes" : [
        {
            "mesh" : 0,
            "name" : "Plane.010"
        }
    ],
    "animations" : [
        {
            "channels" : [
                {
                    "sampler" : 0,
                    "target" : {
                        "node" : 0,
                        "path" : "weights"
                    }
                }
            ],
            "name" : "Animation",
            "samplers" : [
                {
                    "input" : 8,
                    "interpolation" : "LINEAR",
                    "output" : 9
                }
            ]
        }
    ],
    "materials" : [
        {
            "doubleSided" : true,
            "emissiveFactor" : [
                0.00038674144889228046,
                0.002904545981436968,
                0.007882896810770035
            ],
            "name" : "Material1",
            "pbrMetallicRoughness" : {
                "baseColorTexture" : {
                    "index" : 0,
                    "texCoord" : 0
                },
                "metallicFactor" : 0,
                "roughnessFactor" : 0.7916666865348816
            }
        }
    ],
    "meshes" : [
        {
            "extras" : {
                "targetNames" : [
                    "Key 1",
                    "Key 2"
                ]
            },
            "name" : "Plane.009",
            "primitives" : [
                {
                    "attributes" : {
                        "POSITION" : 0,
                        "NORMAL" : 1,
                        "TEXCOORD_0" : 2
                    },
                    "indices" : 3,
                    "material" : 0,
                    "targets" : [
                        {
                            "POSITION" : 4,
                            "NORMAL" : 5
                        },
                        {
                            "POSITION" : 6,
                            "NORMAL" : 7
                        }
                    ]
                }
            ],
            "weights" : [
                0,
                0
            ]
        }
    ],
    "textures" : [
        {
            "source" : 0
        }
    ],
    "images" : [
        {
            "mimeType" : "image/png",
            "name" : "Moerkeblaa",
            "uri" : "Moerkeblaa.png"
        }
    ],
    "accessors" : [
        {
            "bufferView" : 0,
            "componentType" : 5126,
            "count" : 4112,
            "max" : [
                1,
                0,
                1
            ],
            "min" : [
                -1,
                0,
                -1
            ],
            "type" : "VEC3"
        },
        {
            "bufferView" : 1,
            "componentType" : 5126,
            "count" : 4112,
            "type" : "VEC3"
        },
        {
            "bufferView" : 2,
            "componentType" : 5126,
            "count" : 4112,
            "type" : "VEC2"
        },
        {
            "bufferView" : 3,
            "componentType" : 5123,
            "count" : 6534,
            "type" : "SCALAR"
        },
        {
            "bufferView" : 4,
            "componentType" : 5126,
            "count" : 4112,
            "max" : [
                0,
                0.09942389279603958,
                0
            ],
            "min" : [
                0,
                -0.06384798884391785,
                -0.3636782467365265
            ],
            "type" : "VEC3"
        },
        {
            "bufferView" : 5,
            "componentType" : 5126,
            "count" : 4112,
            "type" : "VEC3"
        },
        {
            "bufferView" : 6,
            "componentType" : 5126,
            "count" : 4112,
            "max" : [
                0,
                0.09623242169618607,
                0
            ],
            "min" : [
                -0.33793115615844727,
                -0.0381636805832386,
                0
            ],
            "type" : "VEC3"
        },
        {
            "bufferView" : 7,
            "componentType" : 5126,
            "count" : 4112,
            "type" : "VEC3"
        },
        {
            "bufferView" : 8,
            "componentType" : 5126,
            "count" : 100,
            "max" : [
                4.166666666666667
            ],
            "min" : [
                0.041666666666666664
            ],
            "type" : "SCALAR"
        },
        {
            "bufferView" : 9,
            "componentType" : 5126,
            "count" : 200,
            "type" : "SCALAR"
        }
    ],
    "bufferViews" : [
        {
            "buffer" : 0,
            "byteLength" : 49344,
            "byteOffset" : 0
        },
        {
            "buffer" : 0,
            "byteLength" : 49344,
            "byteOffset" : 49344
        },
        {
            "buffer" : 0,
            "byteLength" : 32896,
            "byteOffset" : 98688
        },
        {
            "buffer" : 0,
            "byteLength" : 13068,
            "byteOffset" : 131584
        },
        {
            "buffer" : 0,
            "byteLength" : 49344,
            "byteOffset" : 144652
        },
        {
            "buffer" : 0,
            "byteLength" : 49344,
            "byteOffset" : 193996
        },
        {
            "buffer" : 0,
            "byteLength" : 49344,
            "byteOffset" : 243340
        },
        {
            "buffer" : 0,
            "byteLength" : 49344,
            "byteOffset" : 292684
        },
        {
            "buffer" : 0,
            "byteLength" : 400,
            "byteOffset" : 342028
        },
        {
            "buffer" : 0,
            "byteLength" : 800,
            "byteOffset" : 342428
        }
    ],
    "buffers" : [
        {
            "byteLength" : 343228,
            "uri" : "TC9.glb.bin"
        }
    ]
}
